<svg width="497.9550048828125px" height="131.0099609375px" xmlns="http://www.w3.org/2000/svg" viewBox="1.0224975585937557 9.495019531249994 497.9550048828125 131.0099609375" style="background: rgb(38, 52, 74);" preserveAspectRatio="xMidYMid"><defs><linearGradient id="editing-outline-gradient" x1="1.4455185755993167" x2="-0.44551857559931674" y1="0.8255681544571567" y2="0.17443184554284324"><stop offset="0" stop-color="#f4dede"></stop><stop offset="1" stop-color="#4597f1"></stop></linearGradient><filter id="editing-outline" x="-100%" y="-100%" width="300%" height="300%"><feMorphology in="SourceGraphic" operator="dilate" radius="2" result="outline"></feMorphology><feComposite operator="out" in="outline" in2="SourceAlpha"></feComposite></filter></defs><g filter="url(#editing-outline)"><g transform="translate(72.65499782562256, 104.73500061035156)"><path d="M12.91-44.81L12.91-26.50L41.44-26.50L41.44-44.81L49.56-44.81L49.56 0L41.44 0L41.44-18.31L12.91-18.31L12.91 0L4.78 0L4.78-44.81L12.91-44.81ZM95.25-33.78L95.25 3.25L95.25 3.25Q95.25 5.34 94.72 7.02L94.72 7.02L94.72 7.02Q94.19 8.69 93.31 9.95L93.31 9.95L93.31 9.95Q92.44 11.22 91.28 12.11L91.28 12.11L91.28 12.11Q90.13 13 88.86 13.56L88.86 13.56L88.86 13.56Q87.59 14.13 86.31 14.39L86.31 14.39L86.31 14.39Q85.03 14.66 83.88 14.66L83.88 14.66L69.22 14.66L69.22 6.53L83.88 6.53L83.88 6.53Q85.50 6.53 86.31 5.69L86.31 5.69L86.31 5.69Q87.13 4.84 87.13 3.25L87.13 3.25L87.13-33.78L95.25-33.78ZM83.88-8.13L83.88 0L69.22 0L69.22 0Q67.47 0 65.48-0.59L65.48-0.59L65.48-0.59Q63.50-1.19 61.78-2.55L61.78-2.55L61.78-2.55Q60.06-3.91 58.94-6.08L58.94-6.08L58.94-6.08Q57.81-8.25 57.81-11.41L57.81-11.41L57.81-33.78L65.94-33.78L65.94-11.41L65.94-11.41Q65.94-9.81 66.78-8.97L66.78-8.97L66.78-8.97Q67.63-8.13 69.28-8.13L69.28-8.13L83.88-8.13ZM140.25-22.41L140.25-11.41L140.25-11.41Q140.25-9.31 139.72-7.64L139.72-7.64L139.72-7.64Q139.19-5.97 138.31-4.70L138.31-4.70L138.31-4.70Q137.44-3.44 136.28-2.55L136.28-2.55L136.28-2.55Q135.13-1.66 133.86-1.09L133.86-1.09L133.86-1.09Q132.59-0.53 131.31-0.27L131.31-0.27L131.31-0.27Q130.03 0 128.88 0L128.88 0L114.22 0L114.22-8.13L128.88-8.13L128.88-8.13Q130.50-8.13 131.31-8.97L131.31-8.97L131.31-8.97Q132.13-9.81 132.13-11.41L132.13-11.41L132.13-22.34L132.13-22.34Q132.13-24.03 131.30-24.84L131.30-24.84L131.30-24.84Q130.47-25.66 128.88-25.66L128.88-25.66L114.28-25.66L114.28-25.66Q112.63-25.66 111.78-24.83L111.78-24.83L111.78-24.83Q110.94-24 110.94-22.41L110.94-22.41L110.94 10.56L102.81 10.56L102.81-22.41L102.81-22.41Q102.81-24.50 103.34-26.16L103.34-26.16L103.34-26.16Q103.88-27.81 104.77-29.08L104.77-29.08L104.77-29.08Q105.66-30.34 106.81-31.23L106.81-31.23L106.81-31.23Q107.97-32.13 109.23-32.69L109.23-32.69L109.23-32.69Q110.50-33.25 111.80-33.52L111.80-33.52L111.80-33.52Q113.09-33.78 114.22-33.78L114.22-33.78L128.88-33.78L128.88-33.78Q130.97-33.78 132.63-33.25L132.63-33.25L132.63-33.25Q134.28-32.72 135.55-31.84L135.55-31.84L135.55-31.84Q136.81-30.97 137.70-29.81L137.70-29.81L137.70-29.81Q138.59-28.66 139.16-27.39L139.16-27.39L139.16-27.39Q139.72-26.13 139.98-24.84L139.98-24.84L139.98-24.84Q140.25-23.56 140.25-22.41L140.25-22.41ZM183.53-22.59L183.53-22.59L183.53-22.59Q183.53-20.91 182.94-18.95L182.94-18.95L182.94-18.95Q182.34-17 181.02-15.33L181.02-15.33L181.02-15.33Q179.69-13.66 177.55-12.53L177.55-12.53L177.55-12.53Q175.41-11.41 172.34-11.41L172.34-11.41L157.69-11.41L157.69-19.13L172.34-19.13L172.34-19.13Q174-19.13 174.91-20.14L174.91-20.14L174.91-20.14Q175.81-21.16 175.81-22.66L175.81-22.66L175.81-22.66Q175.81-24.25 174.80-25.16L174.80-25.16L174.80-25.16Q173.78-26.06 172.34-26.06L172.34-26.06L157.69-26.06L157.69-26.06Q156.03-26.06 155.13-25.05L155.13-25.05L155.13-25.05Q154.22-24.03 154.22-22.53L154.22-22.53L154.22-11.19L154.22-11.19Q154.22-9.56 155.23-8.66L155.23-8.66L155.23-8.66Q156.25-7.75 157.75-7.75L157.75-7.75L172.34-7.75L172.34 0L157.69 0L157.69 0Q156 0 154.05-0.59L154.05-0.59L154.05-0.59Q152.09-1.19 150.42-2.52L150.42-2.52L150.42-2.52Q148.75-3.84 147.63-5.98L147.63-5.98L147.63-5.98Q146.50-8.13 146.50-11.19L146.50-11.19L146.50-22.59L146.50-22.59Q146.50-24.28 147.09-26.23L147.09-26.23L147.09-26.23Q147.69-28.19 149.02-29.86L149.02-29.86L149.02-29.86Q150.34-31.53 152.48-32.66L152.48-32.66L152.48-32.66Q154.63-33.78 157.69-33.78L157.69-33.78L172.34-33.78L172.34-33.78Q174.03-33.78 175.98-33.19L175.98-33.19L175.98-33.19Q177.94-32.59 179.61-31.27L179.61-31.27L179.61-31.27Q181.28-29.94 182.41-27.80L182.41-27.80L182.41-27.80Q183.53-25.66 183.53-22.59ZM218.56-33.78L218.56-25.66L200.28-25.66L200.28-25.66Q198.63-25.66 197.78-24.83L197.78-24.83L197.78-24.83Q196.94-24 196.94-22.41L196.94-22.41L196.94 0L188.81 0L188.81-22.41L188.81-22.41Q188.81-24.50 189.34-26.16L189.34-26.16L189.34-26.16Q189.88-27.81 190.77-29.08L190.77-29.08L190.77-29.08Q191.66-30.34 192.81-31.23L192.81-31.23L192.81-31.23Q193.97-32.13 195.23-32.69L195.23-32.69L195.23-32.69Q196.50-33.25 197.80-33.52L197.80-33.52L197.80-33.52Q199.09-33.78 200.22-33.78L200.22-33.78L218.56-33.78ZM269.53-11.41L269.53-9.84L269.53-9.84Q269.53-8.34 269.02-6.63L269.02-6.63L269.02-6.63Q268.50-4.91 267.33-3.44L267.33-3.44L267.33-3.44Q266.16-1.97 264.28-0.98L264.28-0.98L264.28-0.98Q262.41 0 259.69 0L259.69 0L228.84 0L228.84 0Q227.97 0 227.22-0.31L227.22-0.31L227.22-0.31Q226.47-0.63 225.92-1.17L225.92-1.17L225.92-1.17Q225.38-1.72 225.06-2.47L225.06-2.47L225.06-2.47Q224.75-3.22 224.75-4.09L224.75-4.09L224.75-40.72L224.75-40.72Q224.75-41.56 225.06-42.31L225.06-42.31L225.06-42.31Q225.38-43.06 225.92-43.63L225.92-43.63L225.92-43.63Q226.47-44.19 227.22-44.50L227.22-44.50L227.22-44.50Q227.97-44.81 228.84-44.81L228.84-44.81L256.03-44.81L256.03-44.81Q257.53-44.81 259.25-44.28L259.25-44.28L259.25-44.28Q260.97-43.75 262.45-42.58L262.45-42.58L262.45-42.58Q263.94-41.41 264.92-39.53L264.92-39.53L264.92-39.53Q265.91-37.66 265.91-34.94L265.91-34.94L265.91-33.41L265.91-33.41Q265.91-31.25 265.19-28.77L265.19-28.77L265.19-28.77Q264.47-26.28 262.88-24.06L262.88-24.06L262.88-24.06Q264.25-23.22 265.45-22.03L265.45-22.03L265.45-22.03Q266.66-20.84 267.56-19.28L267.56-19.28L267.56-19.28Q268.47-17.72 269-15.75L269-15.75L269-15.75Q269.53-13.78 269.53-11.41L269.53-11.41ZM261.41-9.91L261.41-11.41L261.41-11.41Q261.41-13 260.91-14.27L260.91-14.27L260.91-14.27Q260.41-15.53 259.50-16.44L259.50-16.44L259.50-16.44Q258.59-17.34 257.31-17.83L257.31-17.83L257.31-17.83Q256.03-18.31 254.44-18.31L254.44-18.31L236.13-18.31L236.13-26.50L250.78-26.50L250.78-26.50Q252.38-26.50 253.66-26.98L253.66-26.98L253.66-26.98Q254.94-27.47 255.84-28.38L255.84-28.38L255.84-28.38Q256.75-29.28 257.23-30.55L257.23-30.55L257.23-30.55Q257.72-31.81 257.72-33.41L257.72-33.41L257.72-34.94L257.72-34.94Q257.72-36.69 256.03-36.69L256.03-36.69L232.88-36.69L232.88-8.13L259.69-8.13L259.69-8.13Q259.91-8.13 260.22-8.16L260.22-8.16L260.22-8.16Q260.53-8.19 260.78-8.34L260.78-8.34L260.78-8.34Q261.03-8.50 261.22-8.88L261.22-8.88L261.22-8.88Q261.41-9.25 261.41-9.91L261.41-9.91ZM312.44-22.41L312.44-11.41L312.44-11.41Q312.44-9.31 311.91-7.64L311.91-7.64L311.91-7.64Q311.38-5.97 310.50-4.70L310.50-4.70L310.50-4.70Q309.63-3.44 308.47-2.55L308.47-2.55L308.47-2.55Q307.31-1.66 306.05-1.09L306.05-1.09L306.05-1.09Q304.78-0.53 303.48-0.27L303.48-0.27L303.48-0.27Q302.19 0 301.03 0L301.03 0L286.38 0L286.38 0Q284.69 0 282.69-0.59L282.69-0.59L282.69-0.59Q280.69-1.19 278.98-2.55L278.98-2.55L278.98-2.55Q277.28-3.91 276.14-6.08L276.14-6.08L276.14-6.08Q275-8.25 275-11.41L275-11.41L275-22.41L275-22.41Q275-25.53 276.14-27.70L276.14-27.70L276.14-27.70Q277.28-29.88 278.98-31.23L278.98-31.23L278.98-31.23Q280.69-32.59 282.69-33.19L282.69-33.19L282.69-33.19Q284.69-33.78 286.38-33.78L286.38-33.78L301.03-33.78L301.03-33.78Q304.16-33.78 306.34-32.66L306.34-32.66L306.34-32.66Q308.53-31.53 309.88-29.83L309.88-29.83L309.88-29.83Q311.22-28.13 311.83-26.13L311.83-26.13L311.83-26.13Q312.44-24.13 312.44-22.41L312.44-22.41ZM304.31-11.41L304.31-22.34L304.31-22.34Q304.31-24.03 303.47-24.84L303.47-24.84L303.47-24.84Q302.63-25.66 301.03-25.66L301.03-25.66L286.44-25.66L286.44-25.66Q284.81-25.66 283.97-24.83L283.97-24.83L283.97-24.83Q283.13-24 283.13-22.41L283.13-22.41L283.13-11.41L283.13-11.41Q283.13-9.81 283.97-8.97L283.97-8.97L283.97-8.97Q284.81-8.13 286.44-8.13L286.44-8.13L301.03-8.13L301.03-8.13Q302.69-8.13 303.50-8.97L303.50-8.97L303.50-8.97Q304.31-9.81 304.31-11.41L304.31-11.41ZM349.91-33.78L349.91-25.66L335.72-25.66L335.72 0L327.50 0L327.50-25.66L316.94-25.66L316.94-33.78L327.50-33.78L327.50-44.81L335.72-44.81L335.72-33.78L349.91-33.78Z" fill="url(#editing-outline-gradient)"></path></g></g><style>text {
  font-size: 64px;
  font-family: Arial Black;
  dominant-baseline: central;
  text-anchor: middle;
}</style></svg>