<svg width="214.14013671875px" height="64.41252441406249px" xmlns="http://www.w3.org/2000/svg" viewBox="142.929931640625 42.793737792968756 214.14013671875 64.41252441406249" style="background: rgb(38, 52, 74);" preserveAspectRatio="xMidYMid"><defs><linearGradient id="editing-outline-gradient" x1="1.4455185755993167" x2="-0.44551857559931674" y1="0.8255681544571567" y2="0.17443184554284324"><stop offset="0" stop-color="#f4dede"></stop><stop offset="1" stop-color="#4597f1"></stop></linearGradient><filter id="editing-outline" x="-100%" y="-100%" width="300%" height="300%"><feMorphology in="SourceGraphic" operator="dilate" radius="2" result="outline"></feMorphology><feComposite operator="out" in="outline" in2="SourceAlpha"></feComposite></filter></defs><g filter="url(#editing-outline)"><g transform="translate(177.95500421524048, 87.07999992370605)"><path d="M5.24-18.21L5.24-10.77L16.83-10.77L16.83-18.21L20.13-18.21L20.13 0L16.83 0L16.83-7.44L5.24-7.44L5.24 0L1.94 0L1.94-18.21L5.24-18.21ZM38.70-13.72L38.70 1.32L38.70 1.32Q38.70 2.17 38.48 2.85L38.48 2.85L38.48 2.85Q38.26 3.53 37.91 4.04L37.91 4.04L37.91 4.04Q37.55 4.56 37.08 4.92L37.08 4.92L37.08 4.92Q36.61 5.28 36.10 5.51L36.10 5.51L36.10 5.51Q35.58 5.74 35.06 5.85L35.06 5.85L35.06 5.85Q34.54 5.95 34.07 5.95L34.07 5.95L28.12 5.95L28.12 2.65L34.07 2.65L34.07 2.65Q34.73 2.65 35.06 2.31L35.06 2.31L35.06 2.31Q35.39 1.97 35.39 1.32L35.39 1.32L35.39-13.72L38.70-13.72ZM34.07-3.30L34.07 0L28.12 0L28.12 0Q27.41 0 26.60-0.24L26.60-0.24L26.60-0.24Q25.80-0.48 25.10-1.03L25.10-1.03L25.10-1.03Q24.40-1.59 23.94-2.47L23.94-2.47L23.94-2.47Q23.49-3.35 23.49-4.63L23.49-4.63L23.49-13.72L26.79-13.72L26.79-4.63L26.79-4.63Q26.79-3.99 27.13-3.64L27.13-3.64L27.13-3.64Q27.47-3.30 28.15-3.30L28.15-3.30L34.07-3.30ZM56.98-9.10L56.98-4.63L56.98-4.63Q56.98-3.78 56.76-3.10L56.76-3.10L56.76-3.10Q56.54-2.42 56.19-1.91L56.19-1.91L56.19-1.91Q55.83-1.40 55.36-1.03L55.36-1.03L55.36-1.03Q54.89-0.67 54.38-0.44L54.38-0.44L54.38-0.44Q53.87-0.22 53.35-0.11L53.35-0.11L53.35-0.11Q52.83 0 52.36 0L52.36 0L46.40 0L46.40-3.30L52.36-3.30L52.36-3.30Q53.02-3.30 53.35-3.64L53.35-3.64L53.35-3.64Q53.68-3.99 53.68-4.63L53.68-4.63L53.68-9.08L53.68-9.08Q53.68-9.76 53.34-10.09L53.34-10.09L53.34-10.09Q53.00-10.42 52.36-10.42L52.36-10.42L46.43-10.42L46.43-10.42Q45.75-10.42 45.41-10.09L45.41-10.09L45.41-10.09Q45.07-9.75 45.07-9.10L45.07-9.10L45.07 4.29L41.77 4.29L41.77-9.10L41.77-9.10Q41.77-9.95 41.98-10.63L41.98-10.63L41.98-10.63Q42.20-11.30 42.56-11.81L42.56-11.81L42.56-11.81Q42.92-12.33 43.39-12.69L43.39-12.69L43.39-12.69Q43.86-13.05 44.38-13.28L44.38-13.28L44.38-13.28Q44.89-13.51 45.42-13.62L45.42-13.62L45.42-13.62Q45.94-13.72 46.40-13.72L46.40-13.72L52.36-13.72L52.36-13.72Q53.21-13.72 53.88-13.51L53.88-13.51L53.88-13.51Q54.55-13.29 55.07-12.94L55.07-12.94L55.07-12.94Q55.58-12.58 55.94-12.11L55.94-12.11L55.94-12.11Q56.30-11.64 56.53-11.13L56.53-11.13L56.53-11.13Q56.76-10.61 56.87-10.09L56.87-10.09L56.87-10.09Q56.98-9.57 56.98-9.10L56.98-9.10ZM74.56-9.18L74.56-9.18L74.56-9.18Q74.56-8.49 74.32-7.70L74.32-7.70L74.32-7.70Q74.08-6.91 73.54-6.23L73.54-6.23L73.54-6.23Q73.00-5.55 72.13-5.09L72.13-5.09L72.13-5.09Q71.26-4.63 70.01-4.63L70.01-4.63L64.06-4.63L64.06-7.77L70.01-7.77L70.01-7.77Q70.69-7.77 71.06-8.18L71.06-8.18L71.06-8.18Q71.42-8.59 71.42-9.20L71.42-9.20L71.42-9.20Q71.42-9.85 71.01-10.22L71.01-10.22L71.01-10.22Q70.60-10.59 70.01-10.59L70.01-10.59L64.06-10.59L64.06-10.59Q63.39-10.59 63.02-10.18L63.02-10.18L63.02-10.18Q62.65-9.76 62.65-9.15L62.65-9.15L62.65-4.54L62.65-4.54Q62.65-3.88 63.06-3.52L63.06-3.52L63.06-3.52Q63.48-3.15 64.09-3.15L64.09-3.15L70.01-3.15L70.01 0L64.06 0L64.06 0Q63.38 0 62.58-0.24L62.58-0.24L62.58-0.24Q61.79-0.48 61.11-1.02L61.11-1.02L61.11-1.02Q60.43-1.56 59.97-2.43L59.97-2.43L59.97-2.43Q59.52-3.30 59.52-4.54L59.52-4.54L59.52-9.18L59.52-9.18Q59.52-9.86 59.76-10.66L59.76-10.66L59.76-10.66Q60.00-11.45 60.54-12.13L60.54-12.13L60.54-12.13Q61.08-12.81 61.95-13.27L61.95-13.27L61.95-13.27Q62.82-13.72 64.06-13.72L64.06-13.72L70.01-13.72L70.01-13.72Q70.70-13.72 71.49-13.48L71.49-13.48L71.49-13.48Q72.29-13.24 72.97-12.70L72.97-12.70L72.97-12.70Q73.65-12.16 74.10-11.29L74.10-11.29L74.10-11.29Q74.56-10.42 74.56-9.18ZM88.79-13.72L88.79-10.42L81.36-10.42L81.36-10.42Q80.69-10.42 80.35-10.09L80.35-10.09L80.35-10.09Q80.01-9.75 80.01-9.10L80.01-9.10L80.01 0L76.71 0L76.71-9.10L76.71-9.10Q76.71-9.95 76.92-10.63L76.92-10.63L76.92-10.63Q77.14-11.30 77.50-11.81L77.50-11.81L77.50-11.81Q77.86-12.33 78.33-12.69L78.33-12.69L78.33-12.69Q78.80-13.05 79.31-13.28L79.31-13.28L79.31-13.28Q79.83-13.51 80.35-13.62L80.35-13.62L80.35-13.62Q80.88-13.72 81.34-13.72L81.34-13.72L88.79-13.72ZM109.50-4.63L109.50-4.00L109.50-4.00Q109.50-3.39 109.29-2.69L109.29-2.69L109.29-2.69Q109.08-1.99 108.60-1.40L108.60-1.40L108.60-1.40Q108.13-0.80 107.36-0.40L107.36-0.40L107.36-0.40Q106.60 0 105.50 0L105.50 0L92.97 0L92.97 0Q92.61 0 92.31-0.13L92.31-0.13L92.31-0.13Q92.00-0.25 91.78-0.48L91.78-0.48L91.78-0.48Q91.56-0.70 91.43-1.00L91.43-1.00L91.43-1.00Q91.30-1.31 91.30-1.66L91.30-1.66L91.30-16.54L91.30-16.54Q91.30-16.88 91.43-17.19L91.43-17.19L91.43-17.19Q91.56-17.49 91.78-17.72L91.78-17.72L91.78-17.72Q92.00-17.95 92.31-18.08L92.31-18.08L92.31-18.08Q92.61-18.21 92.97-18.21L92.97-18.21L104.01-18.21L104.01-18.21Q104.62-18.21 105.32-17.99L105.32-17.99L105.32-17.99Q106.02-17.77 106.62-17.30L106.62-17.30L106.62-17.30Q107.22-16.82 107.62-16.06L107.62-16.06L107.62-16.06Q108.02-15.30 108.02-14.19L108.02-14.19L108.02-13.57L108.02-13.57Q108.02-12.70 107.73-11.69L107.73-11.69L107.73-11.69Q107.44-10.68 106.79-9.78L106.79-9.78L106.79-9.78Q107.35-9.43 107.84-8.95L107.84-8.95L107.84-8.95Q108.33-8.47 108.70-7.83L108.70-7.83L108.70-7.83Q109.07-7.20 109.28-6.40L109.28-6.40L109.28-6.40Q109.50-5.60 109.50-4.63L109.50-4.63ZM106.20-4.02L106.20-4.63L106.20-4.63Q106.20-5.28 105.99-5.80L105.99-5.80L105.99-5.80Q105.79-6.31 105.42-6.68L105.42-6.68L105.42-6.68Q105.05-7.05 104.53-7.24L104.53-7.24L104.53-7.24Q104.01-7.44 103.37-7.44L103.37-7.44L95.93-7.44L95.93-10.77L101.88-10.77L101.88-10.77Q102.53-10.77 103.05-10.96L103.05-10.96L103.05-10.96Q103.57-11.16 103.94-11.53L103.94-11.53L103.94-11.53Q104.30-11.90 104.50-12.41L104.50-12.41L104.50-12.41Q104.70-12.92 104.70-13.57L104.70-13.57L104.70-14.19L104.70-14.19Q104.70-14.90 104.01-14.90L104.01-14.90L94.61-14.90L94.61-3.30L105.50-3.30L105.50-3.30Q105.59-3.30 105.71-3.31L105.71-3.31L105.71-3.31Q105.84-3.33 105.94-3.39L105.94-3.39L105.94-3.39Q106.04-3.45 106.12-3.61L106.12-3.61L106.12-3.61Q106.20-3.76 106.20-4.02L106.20-4.02ZM126.93-9.10L126.93-4.63L126.93-4.63Q126.93-3.78 126.71-3.10L126.71-3.10L126.71-3.10Q126.50-2.42 126.14-1.91L126.14-1.91L126.14-1.91Q125.79-1.40 125.32-1.03L125.32-1.03L125.32-1.03Q124.85-0.67 124.33-0.44L124.33-0.44L124.33-0.44Q123.82-0.22 123.29-0.11L123.29-0.11L123.29-0.11Q122.76 0 122.29 0L122.29 0L116.34 0L116.34 0Q115.65 0 114.84-0.24L114.84-0.24L114.84-0.24Q114.03-0.48 113.34-1.03L113.34-1.03L113.34-1.03Q112.65-1.59 112.18-2.47L112.18-2.47L112.18-2.47Q111.72-3.35 111.72-4.63L111.72-4.63L111.72-9.10L111.72-9.10Q111.72-10.37 112.18-11.25L112.18-11.25L112.18-11.25Q112.65-12.14 113.34-12.69L113.34-12.69L113.34-12.69Q114.03-13.24 114.84-13.48L114.84-13.48L114.84-13.48Q115.65-13.72 116.34-13.72L116.34-13.72L122.29-13.72L122.29-13.72Q123.56-13.72 124.45-13.27L124.45-13.27L124.45-13.27Q125.34-12.81 125.89-12.12L125.89-12.12L125.89-12.12Q126.43-11.43 126.68-10.61L126.68-10.61L126.68-10.61Q126.93-9.80 126.93-9.10L126.93-9.10ZM123.63-4.63L123.63-9.08L123.63-9.08Q123.63-9.76 123.28-10.09L123.28-10.09L123.28-10.09Q122.94-10.42 122.29-10.42L122.29-10.42L116.37-10.42L116.37-10.42Q115.71-10.42 115.36-10.09L115.36-10.09L115.36-10.09Q115.02-9.75 115.02-9.10L115.02-9.10L115.02-4.63L115.02-4.63Q115.02-3.99 115.36-3.64L115.36-3.64L115.36-3.64Q115.71-3.30 116.37-3.30L116.37-3.30L122.29-3.30L122.29-3.30Q122.97-3.30 123.30-3.64L123.30-3.64L123.30-3.64Q123.63-3.99 123.63-4.63L123.63-4.63ZM142.15-13.72L142.15-10.42L136.39-10.42L136.39 0L133.05 0L133.05-10.42L128.76-10.42L128.76-13.72L133.05-13.72L133.05-18.21L136.39-18.21L136.39-13.72L142.15-13.72Z" fill="url(#editing-outline-gradient)"></path></g></g><style>text {
    font-size: 64px;
    font-family: Arial Black;
    dominant-baseline: central;
    text-anchor: middle;
    }</style></svg>
