<svg width="154.5974609375px" height="80.0099609375px" xmlns="http://www.w3.org/2000/svg" viewBox="172.70126953125 34.99501953125 154.5974609375 80.0099609375" style="background: none;" preserveAspectRatio="xMidYMid"><defs><linearGradient id="editing-outline-gradient" x1="-0.5" x2="1.5" y1="0.5000000000000002" y2="0.4999999999999998"><stop offset="0" stop-color="#f2bc39"></stop><stop offset="1" stop-color="#605203"></stop></linearGradient><filter id="editing-outline" x="-100%" y="-100%" width="300%" height="300%"><feMorphology in="SourceGraphic" operator="dilate" radius="1" result="outline"></feMorphology><feComposite operator="out" in="outline" in2="SourceAlpha"></feComposite></filter></defs><g filter="url(#editing-outline)"><g transform="translate(200.06000232696533, 90.55500030517578)"><path d="M9.11-4.00L9.11-10.60L9.11-10.60Q7.92-10.60 6.73-10.38L6.73-10.38L6.73-10.38Q6.38-11.62 6.38-12.80L6.38-12.80L6.38-12.80Q6.38-13.51 7.00-13.51L7.00-13.51L12.58-13.51L12.58-3.74L12.58-3.74Q12.58-2.82 12.94-2.42L12.94-2.42L12.94-2.42Q13.29-2.02 14.21-2.02L14.21-2.02L14.21-2.02Q14.26-0.88 13.62-0.22L13.62-0.22L13.62-0.22Q12.98 0.44 11.79 0.44L11.79 0.44L11.79 0.44Q9.94 0.44 9.42-0.92L9.42-0.92L9.42-0.92Q8.18 0.44 6.03 0.44L6.03 0.44L6.03 0.44Q1.54 0.44 1.54-3.78L1.54-3.78L1.54-24.38L1.54-24.38Q1.54-26.58 3.04-27.81L3.04-27.81L3.04-27.81Q4.53-29.04 7.06-29.04L7.06-29.04L7.06-29.04Q9.59-29.04 11.09-27.92L11.09-27.92L11.09-27.92Q12.58-26.80 12.58-24.99L12.58-24.99L12.58-19.98L12.58-19.98Q12.58-19.18 11.44-18.88L11.44-18.88L11.44-18.88Q10.82-18.70 10.21-18.70L10.21-18.70L10.21-18.70Q9.59-18.70 8.98-18.83L8.98-18.83L8.98-18.83Q9.11-19.89 9.11-21.08L9.11-21.08L9.11-24.38L9.11-24.38Q9.11-25.21 8.54-25.67L8.54-25.67L8.54-25.67Q7.96-26.14 7.04-26.14L7.04-26.14L7.04-26.14Q6.12-26.14 5.57-25.67L5.57-25.67L5.57-25.67Q5.02-25.21 5.02-24.38L5.02-24.38L5.02-4.05L5.02-4.05Q5.02-2.46 6.62-2.46L6.62-2.46L6.62-2.46Q8.23-2.46 9.11-4.00L9.11-4.00ZM15.80-4.05L15.80-4.05L15.80-17.34L15.80-17.34Q15.80-19.54 17.16-20.77L17.16-20.77L17.16-20.77Q18.52-22 20.86-22L20.86-22L20.86-22Q23.19-22 24.49-20.86L24.49-20.86L24.49-20.86Q25.78-19.71 25.78-17.51L25.78-17.51L25.78-4.22L25.78-4.22Q25.78-2.02 24.40-0.79L24.40-0.79L24.40-0.79Q23.01 0.44 20.68 0.44L20.68 0.44L20.68 0.44Q18.35 0.44 17.07-0.70L17.07-0.70L17.07-0.70Q15.80-1.85 15.80-4.05ZM19.10-17.51L19.10-17.51L19.10-4.05L19.10-4.05Q19.10-3.30 19.58-2.79L19.58-2.79L19.58-2.79Q20.06-2.29 20.79-2.29L20.79-2.29L20.79-2.29Q21.52-2.29 22-2.79L22-2.79L22-2.79Q22.48-3.30 22.48-4.05L22.48-4.05L22.48-17.51L22.48-17.51Q22.48-18.26 22-18.77L22-18.77L22-18.77Q21.52-19.27 20.79-19.27L20.79-19.27L20.79-19.27Q20.06-19.27 19.58-18.77L19.58-18.77L19.58-18.77Q19.10-18.26 19.10-17.51ZM28.82-2.77L28.82-27.28L28.82-27.28Q28.82-28.29 28.42-29.96L28.42-29.96L28.42-29.96Q29.74-30.67 31.24-30.67L31.24-30.67L31.24-30.67Q32.12-30.67 32.12-30.01L32.12-30.01L32.12-3.65L32.12-3.65Q32.12-2.73 32.45-2.33L32.45-2.33L32.45-2.33Q32.78-1.94 33.70-1.94L33.70-1.94L33.70-1.94Q33.75-0.79 33.11-0.18L33.11-0.18L33.11-0.18Q32.47 0.44 31.24 0.44L31.24 0.44L31.24 0.44Q30.01 0.44 29.41-0.31L29.41-0.31L29.41-0.31Q28.82-1.06 28.82-2.77L28.82-2.77ZM42.15-4.14L42.15-18.74L40.44-18.74L40.44-18.74Q39.69-18.74 39.23-18.28L39.23-18.28L39.23-18.28Q38.76-17.82 38.76-17.07L38.76-17.07L38.76-4.09L38.76-4.09Q38.76-2.55 40.04-2.55L40.04-2.55L40.04-2.55Q40.70-2.55 41.29-3.06L41.29-3.06L41.29-3.06Q41.89-3.56 42.15-4.14L42.15-4.14ZM42.15-21.56L42.15-27.28L42.15-27.28Q42.15-28.60 41.76-29.96L41.76-29.96L41.76-29.96Q43.08-30.67 44.57-30.67L44.57-30.67L44.57-30.67Q45.45-30.67 45.45-30.01L45.45-30.01L45.45-3.65L45.45-3.65Q45.45-2.73 45.78-2.33L45.78-2.33L45.78-2.33Q46.11-1.94 47.04-1.94L47.04-1.94L47.04-1.94Q47.08-0.79 46.44-0.18L46.44-0.18L46.44-0.18Q45.80 0.44 44.62 0.44L44.62 0.44L44.62 0.44Q42.86 0.44 42.37-0.92L42.37-0.92L42.37-0.92Q41.01 0.44 39.29 0.44L39.29 0.44L39.29 0.44Q37.58 0.44 36.52-0.73L36.52-0.73L36.52-0.73Q35.46-1.89 35.46-4.05L35.46-4.05L35.46-16.90L35.46-16.90Q35.46-19.10 36.83-20.33L36.83-20.33L36.83-20.33Q38.19-21.56 40.52-21.56L40.52-21.56L42.15-21.56ZM48.71-18.44L48.71-18.44L48.71-24.38L48.71-24.38Q48.71-26.58 50.20-27.81L50.20-27.81L50.20-27.81Q51.70-29.04 54.23-29.04L54.23-29.04L54.23-29.04Q56.76-29.04 58.26-27.92L58.26-27.92L58.26-27.92Q59.75-26.80 59.75-24.99L59.75-24.99L59.75-19.54L59.75-19.54Q59.75-18.74 58.61-18.44L58.61-18.44L58.61-18.44Q57.99-18.26 57.38-18.26L57.38-18.26L57.38-18.26Q56.76-18.26 56.14-18.39L56.14-18.39L56.14-18.39Q56.28-19.45 56.28-20.64L56.28-20.64L56.28-24.38L56.28-24.38Q56.28-25.21 55.70-25.67L55.70-25.67L55.70-25.67Q55.13-26.14 54.21-26.14L54.21-26.14L54.21-26.14Q53.28-26.14 52.73-25.67L52.73-25.67L52.73-25.67Q52.18-25.21 52.18-24.38L52.18-24.38L52.18-19.23L52.18-19.23Q52.18-17.69 53.20-17.07L53.20-17.07L57.86-14.08L57.86-14.08Q59.84-12.85 59.84-10.30L59.84-10.30L59.84-4.22L59.84-4.22Q59.84-2.02 58.30-0.79L58.30-0.79L58.30-0.79Q56.76 0.44 54.23 0.44L54.23 0.44L54.23 0.44Q51.70 0.44 50.16-0.68L50.16-0.68L50.16-0.68Q48.62-1.80 48.62-3.61L48.62-3.61L48.62-9.06L48.62-9.06Q48.62-9.86 49.76-10.16L49.76-10.16L49.76-10.16Q50.38-10.34 51.00-10.34L51.00-10.34L51.00-10.34Q51.61-10.34 52.23-10.21L52.23-10.21L52.23-10.21Q52.10-9.15 52.10-7.96L52.10-7.96L52.10-4.22L52.10-4.22Q52.10-3.43 52.71-2.95L52.71-2.95L52.71-2.95Q53.33-2.46 54.25-2.46L54.25-2.46L54.25-2.46Q55.18-2.46 55.77-2.95L55.77-2.95L55.77-2.95Q56.36-3.43 56.36-4.22L56.36-4.22L56.36-9.20L56.36-9.20Q56.36-10.91 55.18-11.66L55.18-11.66L50.51-14.70L50.51-14.70Q48.71-15.84 48.71-18.44ZM73.00-3.39L73.00-3.39Q73.00-1.54 71.59-0.55L71.59-0.55L71.59-0.55Q70.18 0.44 68.00 0.44L68.00 0.44L68.00 0.44Q65.82 0.44 64.53-0.68L64.53-0.68L64.53-0.68Q63.23-1.80 63.23-3.70L63.23-3.70L63.23-18.92L61.86-18.70L61.86-18.70Q61.56-19.84 61.56-20.70L61.56-20.70L61.56-20.70Q61.56-21.56 62.13-21.56L62.13-21.56L63.32-21.56L63.93-25.70L63.93-25.70Q64.11-26.66 65.56-26.66L65.56-26.66L65.56-26.66Q66-26.66 66.53-26.58L66.53-26.58L66.53-21.56L70.36-21.56L72.64-21.78L72.64-21.78Q72.86-20.64 72.86-19.78L72.86-19.78L72.86-19.78Q72.86-18.92 72.29-18.92L72.29-18.92L66.53-18.92L66.53-4.22L66.53-4.22Q66.53-3.30 66.99-2.79L66.99-2.79L66.99-2.79Q67.45-2.29 68.16-2.29L68.16-2.29L68.16-2.29Q69.78-2.29 69.78-4.44L69.78-4.44L69.78-7.66L69.65-9.72L69.65-9.72Q70.22-9.86 70.82-9.86L70.82-9.86L70.82-9.86Q71.41-9.86 71.94-9.68L71.94-9.68L71.94-9.68Q73.00-9.42 73.00-8.67L73.00-8.67L73.00-3.39ZM81.58-9.46L79.46-8.05L79.46-8.05Q78.01-7.08 78.01-4.82L78.01-4.82L78.01-4.82Q78.01-2.55 79.40-2.55L79.40-2.55L79.40-2.55Q80.78-2.55 81.58-4.14L81.58-4.14L81.58-9.46ZM79.95-22L79.95-22L79.95-22Q84.88-22 84.88-17.64L84.88-17.64L84.88-3.65L84.88-3.65Q84.88-2.73 85.21-2.33L85.21-2.33L85.21-2.33Q85.54-1.94 86.46-1.94L86.46-1.94L86.46-1.94Q86.50-0.79 85.87-0.18L85.87-0.18L85.87-0.18Q85.23 0.44 84.04 0.44L84.04 0.44L84.04 0.44Q82.19 0.44 81.80-0.92L81.80-0.92L81.80-0.92Q80.43 0.44 78.58 0.44L78.58 0.44L78.58 0.44Q76.74 0.44 75.64-0.97L75.64-0.97L75.64-0.97Q74.54-2.38 74.54-4.75L74.54-4.75L74.54-4.75Q74.54-8.36 77.57-10.21L77.57-10.21L81.58-12.58L81.58-17.34L81.58-17.34Q81.58-19.18 79.84-19.18L79.84-19.18L79.84-19.18Q78.10-19.18 78.10-17.12L78.10-17.12L78.10-15.66L78.23-13.60L78.23-13.60Q77.66-13.46 77.07-13.46L77.07-13.46L77.07-13.46Q76.47-13.46 75.94-13.64L75.94-13.64L75.94-13.64Q74.89-13.90 74.89-14.65L74.89-14.65L74.89-18.26L74.89-18.26Q74.89-20.02 76.27-21.01L76.27-21.01L76.27-21.01Q77.66-22 79.95-22ZM91.87-16.98L91.87-3.61L91.87-3.61Q91.87-1.50 92.18-0.09L92.18-0.09L92.18-0.09Q90.86 0.18 89.32 0.18L89.32 0.18L89.32 0.18Q88.57 0.18 88.57-0.48L88.57-0.48L88.57-17.91L88.57-17.91Q88.57-18.83 88.24-19.23L88.24-19.23L88.24-19.23Q87.91-19.62 86.99-19.62L86.99-19.62L86.99-19.62Q86.94-20.77 87.58-21.38L87.58-21.38L87.58-21.38Q88.22-22 89.41-22L89.41-22L89.41-22Q91.17-22 91.61-20.24L91.61-20.24L91.61-20.24Q92.71-22 94.73-22L94.73-22L94.73-22Q98.34-22 98.34-18.52L98.34-18.52L98.34-14.12L98.34-14.12Q98.34-13.38 97.28-13.11L97.28-13.11L97.28-13.11Q96.76-12.94 96.16-12.94L96.16-12.94L96.16-12.94Q95.57-12.94 95.00-13.07L95.00-13.07L95.00-13.07Q95.13-14.04 95.13-15.14L95.13-15.14L95.13-17.38L95.13-17.38Q95.13-18.83 93.81-18.83L93.81-18.83L93.81-18.83Q93.19-18.83 92.66-18.26L92.66-18.26L92.66-18.26Q92.14-17.69 91.87-16.98L91.87-16.98Z" fill="url(#editing-outline-gradient)"></path></g></g><style>text {
  font-size: 64px;
  font-family: Arial Black;
  dominant-baseline: central;
  text-anchor: middle;
}</style></svg>